<?xml version="1.0" encoding="utf-8"?>
<!-- Generator: Adobe Illustrator 22.0.1, SVG Export Plug-In . SVG Version: 6.00 Build 0)  -->
<svg version="1.1" id="Calque_1" xmlns="http://www.w3.org/2000/svg" xmlns:xlink="http://www.w3.org/1999/xlink" x="0px" y="0px"
	 viewBox="0 0 674.1 132.2" style="enable-background:new 0 0 674.1 132.2;" xml:space="preserve">
<style type="text/css">
	.st0{fill:#000;}
</style>
<g>
	<path class="st0" d="M111.6,132.1H86.2L28.5,51v81.1H0V0h25.4l57.8,80.9V0h28.5V132.1z"/>
	<path class="st0" d="M241.2,132.2h-96.1V0h96.1v23h-67.6v31h57.6v23h-57.6v32.1h67.6V132.2z"/>
	<path class="st0" d="M545.1,23H507v109.2h-28.5V23h-38.1V0h104.7V23z"/>
	<path class="st0" d="M674.1,132.2h-28.5V76.9h-49.4v55.3h-28.5V0h28.5v54h49.4V0h28.5V132.2z"/>
	<path class="st0" d="M250.5,0c0,0-2.5,10,11.3,37.2c0,0,12.3,21.8,20.3,32.2c7.4,9.6,25.7,39.1,26.9,42.6c0,0,1.4,2.8,3.1,6.6
		c1.8,4.1,3.8,9.3,4.7,13.6h25c0,0,5.1-13.8,5.6-29.5c0.5-15.7-2-49.7-2-49.7s26.4,36.4,29.9,42c0,0,16,23,18.8,37.2h25.1
		c0,0,4.3-13.5,4.2-25.7c-0.1-11.9-0.5-18.8-0.8-24.3c-0.3-5.1-3-30-2.8-31.5c0.1-1.5-0.2-15,0.6-21.7c0.9-6.7,2.6-16.7,9.7-29.1
		h-30.3c0,0-8.6,16.9-9,36.3c-0.4,19.4,4.2,48,4.2,48s-29.9-40.4-36.7-55.7c-6.8-15.2-7.4-25-7.6-28.7h-21.4c0,0-9.3,14.4-10.9,37.7
		c0,0-1,22.4,1.8,46.8c0,0-22.9-35.2-24.3-38C294.6,43.8,282.2,25,280.6,0H250.5z"/>
</g>
</svg>
